<svg xmlns="http://www.w3.org/2000/svg" xmlns:xlink="http://www.w3.org/1999/xlink" width="254" height="88" viewBox="0 0 254 88">
  <defs>
    <path id="a" d="M50.569 33.06H.889V.648h49.68z"/>
    <path id="c" d="M.054 13.524V.87h8.583v12.654H.054z"/>
  </defs>
  <g fill="none" fill-rule="evenodd">
    <path fill="#636463" d="M97.55 64.917l-3.377-9.589c-.527-1.649-1.228-4.414-1.228-4.414h-.087s-.658 2.765-1.184 4.414l-3.378 9.589h9.253zM78.868 73.88h.614c.788 0 1.184-.178 1.446-.982l9.692-26.666h4.605l9.69 26.666c.264.804.658.982 1.448.982h.613v3.834h-2.41c-2.193 0-2.896-.535-3.64-2.586l-2.324-6.467H87.245l-2.324 6.467c-.747 2.051-1.448 2.586-3.64 2.586h-2.412V73.88z"/>
    <g transform="translate(105.604 53.966)">
      <mask id="b" fill="#fff">
        <use xlink:href="#a"/>
      </mask>
      <path fill="#636463" d="M3.651 5.866c0-.668-.35-.98-.964-.98H.889V1.184h4.078c1.93 0 2.807.848 2.807 2.498v.846c0 .715-.09 1.294-.09 1.294h.09C8.65 3.86 11.282.649 16.149.649c5.219 0 7.587 2.899 7.587 8.651v9.766c0 .67.35.98.965.98h1.797v3.701h-4.21c-1.973 0-2.806-.846-2.806-2.853V10.281c0-3.166-.614-5.664-4.166-5.664-3.377 0-6.095 2.275-7.016 5.53-.307.892-.396 1.917-.396 3.032v10.568H3.651V5.867M43.684 11.975c0-5.885-2.806-7.58-6.27-7.58-3.86 0-6.052 2.853-6.052 7.446 0 4.683 2.455 7.894 6.446 7.894 3.07 0 5.876-1.873 5.876-7.76zm-7.148 17.302c3.86 0 7.06-1.739 7.06-6.287v-1.516c0-.713.044-1.427.044-1.427h-.087c-1.315 2.184-3.377 3.433-6.578 3.433-6.183 0-9.955-5.039-9.955-11.55C27.02 5.466 30.572.65 36.755.65c5.57 0 7.148 3.522 7.148 3.522h.088s-.043-.356-.043-.712c0-1.338.745-2.275 2.499-2.275h4.122v3.702h-1.798c-.57 0-.965.312-.965.89v17.036c0 7.447-5.525 10.301-11.181 10.301-2.632 0-5.395-.759-7.544-1.873l1.404-3.479s2.762 1.516 6.051 1.516z" mask="url(#b)"/>
    </g>
    <path fill="#636463" d="M158.318 50.914c0-.669-.351-.98-.965-.98H155.6v-3.702h4.166c1.973 0 2.807.848 2.807 2.854v23.946c0 .67.35.981.965.981h1.797v3.7h-4.166c-1.972 0-2.85-.846-2.85-2.852V50.914M168.314 50.736h3.816v-4.504h-3.816v4.504zm-.087 9.097c0-.669-.351-.981-.964-.981h-1.799V55.15h4.167c2.016 0 2.85.848 2.85 2.854v15.028c0 .67.35.981.964.981h1.798v3.7h-4.209c-1.974 0-2.807-.846-2.807-2.852V59.833zM187.783 54.615c2.676 0 7.982 1.114 7.982 4.95v2.319h-3.859v-1.249c0-1.605-2.544-2.318-4.123-2.318-4.34 0-7.63 3.3-7.63 8.071 0 5.127 3.684 8.026 7.85 8.026 4.165 0 6.885-3.122 6.885-3.122l1.797 3.077s-3.113 3.88-8.989 3.88c-6.972 0-11.84-5.039-11.84-11.816 0-6.645 4.78-11.818 11.927-11.818M205.541 74.815c3.683 0 5.964-3.834 5.964-7.178v-.848h-1.14c-3.202 0-8.99.312-8.99 4.37 0 1.829 1.403 3.656 4.166 3.656zm4.999-11.147h.965v-.312c0-3.88-1.49-5.307-4.911-5.307-1.053 0-3.64.268-3.64 1.739v1.293h-4.035v-2.275c0-3.61 5.57-4.19 7.586-4.19 7.324 0 9.253 3.79 9.253 8.829v9.587c0 .67.351.981.966.981h1.798v3.7h-4.036c-1.973 0-2.717-.98-2.717-2.585 0-.803.042-1.338.042-1.338h-.087c.045 0-1.885 4.46-7.148 4.46-3.858 0-7.455-2.364-7.455-6.69 0-7.58 9.692-7.892 13.419-7.892zM221.062 59.833c0-.669-.352-.981-.965-.981h-1.798V55.15h4.078c1.886 0 2.807.803 2.807 2.631v1.428c0 .89-.088 1.56-.088 1.56h.088c1.052-3.3 3.596-5.886 7.016-5.886.57 0 1.14.09 1.14.09v4.28s-.57-.134-1.228-.134c-2.763 0-5.218 1.962-6.271 5.307-.395 1.293-.526 2.675-.526 4.057v9.23h-4.253v-17.88M249.432 63.89c-.132-3.88-2.5-5.93-5.394-5.93-3.288 0-5.876 2.185-6.49 5.93h11.884zm-5.307-9.275c6.271 0 9.561 4.772 9.561 10.569 0 .623-.089 1.472-.132 1.828h-16.181c.262 4.861 3.683 7.492 7.674 7.492 3.376 0 5.788-2.096 6.534-2.63l1.797 3.165c-1.052.891-4.384 3.21-8.595 3.21-6.972 0-11.795-5.128-11.795-11.816 0-7.18 4.823-11.818 11.137-11.818z"/>
    <path fill="#5B7787" d="M67.54 53.808c.948 0 1.86-.088 2.746-.257a1.1 1.1 0 0 0 .89-.956l.003-.027a1.09 1.09 0 0 0-1.285-1.212c-.763.146-1.548.219-2.362.219l-.262-.003c-1.724-.031-3.361-.35-5.107-.69-1.62-.316-3.295-.641-4.988-.674h-.177c-3.116 0-5.705 1.538-7.5 3.044 1.428-3.435 3.578-6.662 6.352-9.429 3.512-3.503 7.744-5.993 12.143-7.231.937-.264 1.088-1.533.242-2.021l-.03-.017a1.046 1.046 0 0 0-.81-.104c-4.313 1.22-8.456 3.542-11.999 6.763.543-3.303 2.571-9.096 9.65-15.011a1.13 1.13 0 0 0 .234-1.462l-.012-.019a1.072 1.072 0 0 0-1.602-.242C53.99 32.562 53.014 40.63 53.037 43.406c.001.055.012.106.02.157-4.818 5.388-7.685 15.722-7.892 18.929-.248 3.29-.827 10.167-.533 15.222h5.898c-.53-1.532-1.593-4.423-2.43-8.304-.373-2.616-.608-5.736-.621-6.16-.016-1.946.075-3.815.668-5.82.594-2.005 5.591-4.994 8.558-4.994h.13c.894.015 1.58.334 1.753.409 1.996.863 6.605 3.33 6.745 7.769.017.552.413 1.013.95 1.075l.039.004a1.075 1.075 0 0 0 1.192-1.09c-.058-2.69-1.337-5.13-3.726-7.151 1.106.184 2.243.33 3.438.353l.314.003"/>
    <path fill="#5B7787" d="M65.387 28.223h4.547l.04.26c-1.433.403-4.332 1.385-4.35 1.473.644.296 1.263.671 1.934.87 1.252.373 2.472.076 3.56-.571 1.203-.715 2.331-1.56 3.541-2.383-1.048-.426-2.014-.788-2.955-1.21-1.062-.475-2.164-.601-3.295-.474-1.262.14-2.263.724-3.022 2.035M65.36 18.767l.255.049c-.108 1.513-.176 4.63-.1 4.676.488-.52 1.042-.99 1.451-1.567.764-1.079.899-2.352.667-3.616-.257-1.396-.658-2.765-1.01-4.204-.746.866-1.405 1.673-2.109 2.436-.796.862-1.28 1.88-1.543 3.01-.293 1.261-.09 2.418.866 3.589l1.524-4.373M52.426 55.283a6.768 6.768 0 0 0-2.715 2.695c-.71 1.276-.897 2.605-.34 4.087l3.436-4.133.143.1-2.087 5.097c.505-.152.895-.228 1.25-.385 1.884-.836 2.87-2.405 3.174-4.39.233-1.511.331-4.832.298-4.978-1.08.657-2.098 1.322-3.159 1.907M59.847 54.72l.43 5.468-.145.044-2.063-5.126c-.095.111-.157.175-.207.247-1.52 2.195-.653 5.171.795 6.871.796.934 1.595 1.867 2.398 2.796.107.124.24.224.383.355.356-1.433.69-2.785 1.027-4.136.375-1.503.226-2.96-.405-4.359-.441-.979-1.104-1.745-2.213-2.16M79.805 47.712c-1.114.083-2.227.184-3.343.244-1.19.064-2.23.519-3.164 1.233-.883.675-1.394 1.58-1.503 2.84 1.434-.637 2.752-1.22 4.07-1.806l.1.163-3.36 3.021c.391.101.655.21.926.233 1.79.15 3.17-.7 4.168-2.087.832-1.156 2.12-3.802 2.106-3.841M62.485 35.201c1.543-1.02 1.855-2.837 2.82-4.36-.89.123-1.654.169-2.386.346-.776.186-1.573.398-2.268.779-.921.506-1.467 1.353-1.493 2.611l2.918-1.513.12.16-2.353 2.424c1.032.323 1.86.07 2.642-.447M55.523 47.113c.013.08.127.416.313.664.916 1.222 2.248 1.653 3.708 1.727 2.094.108 3.85-1.085 5.994-1.458-.792-.606-1.437-1.084-2.065-1.583-.548-.436-1.033-.975-1.628-1.325-1.209-.712-2.547-1.054-3.946-.895-.795.09-1.457.551-2.133 1.111l4.632 1.656-.03.103h-4.845M72.322 38.417c-.95-.822-2.1-1.122-3.314-1.154-.853-.023-1.608.288-2.323.886l4.102 1.794-.056.161c-1.457-.127-2.913-.256-4.407-.388.584 1.545 2.352 2.702 4.118 2.502 1.575-.177 4.772-1.048 4.864-1.142-1.001-.895-1.98-1.792-2.984-2.66M78.245 32.82c-1.266-.416-2.513-.843-3.771-1.235-1.192-.37-2.363-.18-3.491.28-.792.325-1.364.914-1.79 1.753l4.463-.01.012.17-4.197 1.425c1.135 1.182 3.206 1.531 4.751.633 1.378-.799 3.976-2.89 4.023-3.015M67.38 48.589c1.548.759 3.053.502 4.426-.385.803-.518 1.454-1.278 2.175-1.928.463-.418.928-.833 1.466-1.316-1.145-.269-2.171-.485-3.184-.755-1.262-.335-2.5-.307-3.701.204-.99.42-1.798 1.057-2.178 2.208 1.487-.165 2.882-.32 4.278-.473l.029.17c-1.287.614-2.573 1.23-3.937 1.882.259.163.433.298.627.393M72.273 56.21c-.702-.825-1.549-1.408-2.738-1.413.62 1.388 1.204 2.69 1.788 3.994l-.15.081-2.99-3.22c-.07.302-.14.514-.167.732-.218 1.737.495 3.114 1.751 4.166.735.613 1.647 1.005 2.478 1.499.535.316 1.067.636 1.686 1.006-.111-1.195-.233-2.258-.302-3.323-.085-1.329-.502-2.519-1.356-3.521M65.325 41.116c-.912-.58-1.892-.837-2.954-.696-.701.094-1.299.409-1.805 1.073l3.235.701v.376l-3.253.367c.65.824 1.544 1.197 2.613 1.198 1.633.003 2.872-1.052 4.492-1.643-.906-.533-1.63-.933-2.328-1.376"/>
    <path fill="#A4973D" d="M32.456 63.04c-.841-12.485-6.291-17.294-7.682-18.34a1.918 1.918 0 0 1-.167-.142c-6.283-5.983-8.66-11.288-9.453-15.14-.224-1.087-1.693-1.205-2.064-.16l-.013.038c-.068.194-.086.4-.045.6.89 4.307 3.503 10.085 10.24 16.45 0 0 2.84 2.041 4.809 6.94.386.962.712 1.956.988 2.969-1.978-2.154-5.122-4.038-10.086-4.13-2.25-.043-4.16-.52-5.79-1.237 3.022-4.68 2.012-10.1 1.167-12.048a1.063 1.063 0 0 0-1.596-.46l-.005.004a1.114 1.114 0 0 0-.368 1.357c.668 1.485 1.53 6.139-1.136 10.109a14.43 14.43 0 0 1-1.61-1.2c-.59-.512-1.501-.229-1.718.532l-.008.023c-.118.42.03.866.357 1.148 2.457 2.114 5.93 3.92 10.667 4.008 8.241.153 10.513 5.892 11.108 8.353.017.073.078.298.12.528.209 2.706.1 5.587-.027 7.639-.127 2.052-.92 6.833-.92 6.833h4.643c.425-5.701-.915-11.088-1.41-14.674"/>
    <path fill="#A4973D" d="M19.415 55.873l-1.921 4.816-.24-.044c.13-1.701.279-5.185.224-5.226-.47.397-1.016.731-1.398 1.204-1.207 1.5-1.462 3.265-1.108 5.12.253 1.323 1.03 4.205 1.104 4.382.136-.118.229-.18.3-.263.8-.927 1.61-1.846 2.393-2.79 1.231-1.483 1.872-3.173 1.59-5.14-.11-.758-.387-1.456-.944-2.059M24.694 60.23l.157-.086 3.418 4.104c.074-.177.152-.31.187-.455.377-1.555-.015-2.926-.886-4.227-1.354-2.024-3.737-2.524-5.52-4.127-.037.32.05 3.374.279 4.721.165.972.5 1.957.966 2.821.713 1.321 1.899 2.066 3.483 2.304l-2.084-5.054M22.245 50.494c.073-.177.151-.312.187-.456.378-1.555-.016-2.925-.886-4.226-1.354-2.025-3.737-2.525-5.52-4.127-.037.32.049 3.374.278 4.72.166.972.501 1.958.967 2.82.712 1.323 1.898 2.067 3.483 2.305l-2.085-5.054.158-.086 3.418 4.104M2.734 40.711c.712 1.322 1.898 2.067 3.482 2.305L4.133 37.96l.156-.086 3.42 4.104c.073-.177.15-.311.186-.456.378-1.555-.016-2.925-.886-4.226-1.354-2.024-3.736-2.525-5.52-4.127-.037.32-.079.472-.067.62.1 1.369.116 2.754.346 4.101.165.971.5 1.957.966 2.82M10.345 57.846l-.14-.128 2.146-4.001c-.443.06-.758.06-1.046.15-1.7.532-2.725 1.784-3.174 3.46-.365 1.358-.511 2.778-.773 4.27 1.138-.514 2.192-1.012 3.261-1.472 1.15-.493 1.986-1.335 2.598-2.409.509-.893.675-1.857.375-2.988l-3.247 3.118"/>
    <g transform="translate(0 43.227)">
      <mask id="d" fill="#fff">
        <use xlink:href="#c"/>
      </mask>
      <path fill="#A4973D" d="M8.637 9.24l-4.094 1.798-.09-.168L7.81 7.857c-.436-.097-.733-.207-1.034-.222-1.776-.093-3.158.726-4.141 2.144-.797 1.15-1.41 2.433-2.154 3.745 1.241-.087 2.398-.188 3.558-.247 1.245-.063 2.313-.563 3.247-1.359.777-.662 1.256-1.51 1.352-2.679M4.482 6.339c.929.407 1.887.46 2.951.02L4.01 3.445l.108-.158c1.336.546 2.673 1.091 4.15 1.692-.113-.44-.15-.76-.273-1.041-.723-1.66-2.063-2.546-3.747-2.8C2.882.932 1.484.954 0 .87c.638 1.09 1.248 2.099 1.825 3.128.618 1.105 1.538 1.85 2.657 2.34" mask="url(#d)"/>
    </g>
    <path fill="#A4973D" d="M12.81 28.423l-.764-4.592.155-.044 2.108 4.142c.638-1.03.813-1.992.618-3.012-.278-1.444-.99-2.609-2.143-3.53-.761-.609-1.42-1.352-2.174-2.081-.173 1.143-.274 2.193-.5 3.215-.311 1.414-.129 2.75.487 4.013.442.908 1.141 1.58 2.213 1.889M9.173 36.75c.245.158.535.243.922.413l-1.031-4.56c.051-.02.101-.042.151-.063l2.344 4.008c.137-.32.282-.568.354-.838.474-1.775 0-3.343-1.216-4.614-1.01-1.055-2.17-1.96-3.335-2.995-.15 1.518-.414 2.965-.406 4.409.01 1.751.693 3.26 2.217 4.24M10.944 46.968c.255-.262.417-.406.555-.572.688-.827.834-1.846.54-2.793-.406-1.314-1.746-3.798-1.828-3.787-.498 1.02-1.074 2.009-1.475 3.067-.582 1.535-.341 2.954.98 4.169l.48-3.365c.069.004.552 2.095.748 3.28"/>
    <path fill="#729549" d="M42.869 59.568c1.945-.764 3.004-2.323 3.168-4.333.151-1.855-.192-5.683-.277-5.78-.2.16-.407.317-.606.483-.66.551-1.33 1.092-1.975 1.664-.574.51-1.199.991-1.663 1.597-1.149 1.498-1.733 3.163-1.051 5.073.075.212.208.403.33.634l2.81-4.533.17.094-1.355 5.185c.193-.035.33-.038.449-.084M45.89 41.21c-.905.765-1.706 1.453-2.518 2.128-1.116.926-1.935 2.05-2.196 3.522-.169.96-.043 1.88.475 2.788l2.348-4.004.15.067c-.333 1.466-.864 4.463-.827 4.457.086-.013.174-.037.255-.072 1.118-.49 1.811-1.377 2.283-2.496.89-2.112.004-4.196.03-6.39M49.454 36.378c-.75 1.297-1.497 2.593-2.242 3.88.075.065.106.112.141.118.087.013.179.018.265.009 1.212-.126 2.133-.758 2.912-1.681 1.47-1.742 1.24-4.001 1.908-6.086-1.086.452-2.053.863-3.026 1.258-1.337.542-2.449 1.363-3.13 2.687a4.01 4.01 0 0 0-.369 2.804l3.42-3.1.12.11M29.39 24.78c-.626.996-.92 2.088-.974 3.249-.06 1.294.348 2.394 1.5 3.364l.707-4.585h.259c.166 1.508.665 4.584.747 4.615.386-.602.846-1.17 1.143-1.814.556-1.204.458-2.48.002-3.679-.505-1.323-1.147-2.593-1.753-3.941-.576.99-1.077 1.908-1.632 2.791M44.5 13.755l.708-4.585h.259c.167 1.508.665 4.585.747 4.614.387-.601.846-1.169 1.143-1.813.556-1.205.458-2.48.002-3.68-.505-1.323-1.147-2.592-1.753-3.94-.577.99-1.077 1.908-1.632 2.79-.625.998-.919 2.089-.973 3.25-.06 1.294.35 2.393 1.5 3.364M56.32 31.971c1.21-1.413 1.024-3.248 1.542-4.982-.823.367-1.545.625-2.203 1-.694.396-1.406.823-1.97 1.383-.751.745-1.048 1.712-.736 2.93l2.4-2.273.16.121-1.613 2.99c1.08.02 1.809-.454 2.42-1.169M57.273 25.71l2.4-2.273.159.12-1.613 2.99c1.08.021 1.81-.453 2.422-1.168 1.209-1.413 1.022-3.249 1.54-4.982-.823.367-1.545.625-2.202 1-.695.396-1.406.823-1.97 1.383-.751.745-1.05 1.712-.736 2.93M33.977 11.782l.761-5.178.27.004.74 5.086c.897-.434 1.635-1.867 1.79-3.131.37-2.99-1.635-5.073-2.649-7.737-.855 1.74-1.782 3.248-2.352 4.886-.68 1.956-.6 3.946.909 5.607.154.17.346.304.53.463M36.095 15.33c.053.974.381 1.848 1.087 2.683l1.854-5.127.176.037-.249 5.42c.215-.101.36-.151.485-.23 1.892-1.19 2.449-3.764 2.109-5.636-.158-.872-.475-1.713-.712-2.57-.207-.752-.4-1.508-.62-2.34-1.12 1.416-2.237 2.703-3.206 4.096-.742 1.066-.996 2.351-.924 3.668M27.732 17.665c-.106 1.227.196 2.322 1.024 3.323l2.004-5.043.18.06-.441 5.454c1.629-.828 2.397-2.13 2.699-3.766.455-2.46-.696-4.638-1.193-6.936-.726.837-1.397 1.661-2.12 2.436-1.181 1.266-2 2.701-2.153 4.472M48.912 19.441l1.69-4.531.189.054-.287 4.868c.277-.154.5-.24.68-.386 1.68-1.344 2.055-3.187 1.717-5.188-.239-1.416-1.149-4.22-1.233-4.254-1.015 1.315-2.168 2.559-3.025 3.987-.9 1.497-1.14 3.19-.217 4.847.119.211.305.382.486.603M42.435 32.841c.766-1.646 1.37-3.37 2.094-5.177-1.718.463-3.342.882-4.954 1.34-1.227.347-2.112 1.183-2.847 2.205-.637.883-.816 1.887-.812 2.944l4.474-2.884.118.13-3.326 4.135c2.048.617 4.441-.948 5.253-2.693M37.89 25.887c.07.232.219.439.35.694l2.582-4.068.175.092-1.281 4.7c.302-.092.54-.13.745-.232 1.918-.956 2.663-2.678 2.743-4.707.058-1.437-.257-4.371-.332-4.424-1.262 1.069-2.645 2.039-3.776 3.252-1.186 1.272-1.77 2.875-1.207 4.693M24.881 19.384l-1.44-5.263.165-.076 2.908 4.541c.117-.21.205-.336.261-.476.851-2.095-.175-4.515-1.525-5.83-.628-.61-1.37-1.103-2.052-1.656-.6-.486-1.19-.983-1.845-1.525-.095 1.817-.263 3.527-.248 5.236.01 1.308.543 2.5 1.355 3.525.603.758 1.37 1.27 2.421 1.524M23.974 32.292c-2.236-.897-4.481.058-6.838-.244.145.286.195.435.285.551.838 1.075 1.615 2.21 2.546 3.193a9.017 9.017 0 0 0 2.353 1.777c1.317.684 2.708.619 4.149-.094l-4.508-2.983c.028-.053.056-.107.082-.16 1.678.47 3.354.942 5.088 1.43-.036-.189-.045-.344-.096-.484-.545-1.503-1.625-2.41-3.061-2.986M17.108 27.202a9.203 9.203 0 0 0 1.83 2.332c1.103 1.004 2.463 1.304 4.035.991l-3.612-4.06.12-.134 4.56 2.71c.013-.191.043-.344.029-.493-.15-1.595-.968-2.754-2.213-3.685-1.936-1.45-4.346-1.113-6.55-2.018.07.314 1.146 3.164 1.8 4.357M18.834 22.235c.968.763 2.068.98 3.397.785l-2.892-3.491.077-.083 3.826 2.34c-.08-.553-.082-.971-.206-1.347-.567-1.701-1.806-2.705-3.44-3.189-1.161-.344-3.752-.837-3.94-.841.38.944.791 1.807 1.079 2.71.401 1.264 1.078 2.309 2.1 3.116M48.755 46.084c1.06-.075 1.877-.68 2.336-1.557.635-1.215 1.44-3.93 1.375-3.98-1.062.349-2.158.618-3.18 1.065-1.482.648-2.308 1.815-2.237 3.629l2.694-2 .135.16-1.912 2.678c.363.004.577.02.789.005M37.349 42.252c1.06-.075 1.877-.68 2.336-1.557.635-1.214 1.44-3.93 1.375-3.98-1.063.348-2.16.618-3.181 1.064-1.482.648-2.308 1.815-2.236 3.63l2.693-2 .136.16-1.912 2.678c.362.004.577.02.789.005M35.086 59.674c.204-.306.337-.479.442-.667.528-.943.486-1.972.026-2.847-.639-1.214-1.489-2.31-2.249-3.457-.078.027-.928 2.259-1.13 3.374-.293 1.619.2 2.966 1.72 3.911l-.138-3.397.207-.026 1.122 3.11M28.347 12.414c-.048-1.174-.094-2.286-.138-3.398l.206-.025 1.123 3.108c.204-.306.336-.479.442-.667.527-.942.485-1.972.025-2.848-.638-1.213-2.405-3.402-2.484-3.374-.304 1.096-.691 2.176-.894 3.292-.293 1.618.2 2.967 1.72 3.912M36.296 49.097c-.466-2.085-2.672-4.11-4.773-4.496-1.054-.194-2.086-.5-3.128-.758-.2-.05-.398-.11-.634-.176.526 1.464 1.033 2.821 1.503 4.191.508 1.48 1.481 2.54 2.79 3.303.92.536 1.903.654 3.026.476l-3.1-3.982.114-.148 4.225 2.723c-.005-.41.054-.787-.023-1.133M28.648 41.399c-.138-.342-.206-.55-.301-.744a2.814 2.814 0 0 0-2.315-1.59c-1.343-.126-4.107.173-4.127.255.728.863 1.398 1.789 2.199 2.576 1.16 1.141 2.535 1.464 4.145.691l-2.854-1.755c.031-.063 2.106.292 3.253.567M52.667 24.684c.832-1.673.21-3.405.295-5.216-.71.563-1.347.993-1.895 1.521-.578.559-1.164 1.151-1.576 1.836-.55.91-.605 1.922-.01 3.023l1.78-2.803.184.076-.844 3.302c1.052-.25 1.644-.892 2.066-1.74M57.734 13.358l.196.029-.032 3.413c.96-.504 1.382-1.274 1.59-2.2.408-1.83-.61-3.355-.958-5.133-.554.721-1.07 1.298-1.474 1.946-.428.685-.856 1.405-1.093 2.172-.315 1.019-.128 2.014.712 2.935l1.059-3.162"/>
    <path fill="#729549" d="M39.87 60.258a76.066 76.066 0 0 0-.35-1.65c-1.286-5.686-1.133-9.282 5.671-22.156.28-.528.474-.988.719-1.515.09-.145 9.05-4.634 11.373-13.175.317-1.167.505-2.238.584-3.189a1.084 1.084 0 0 0-.647-1.093l-.021-.009c-.676-.286-1.415.188-1.478.932-.275 3.283-1.907 8.405-8.393 13 1.242-4 1.364-8.124-.158-12.815a46.898 46.898 0 0 0-1.32-3.568 1.017 1.017 0 0 0-.76-.618l-.028-.006a1.058 1.058 0 0 0-1.16 1.456c1.883 4.532 3.397 11.902-.64 19.539-2.247 4.25-3.811 7.586-4.845 10.391-2.883-2.458-5.021-4.893-6.698-7.574 5.553-5.966 4.94-18.102 4.189-20.769a1.063 1.063 0 0 0-1.46-.692l-.017.008c-.495.222-.75.784-.595 1.311.633 2.131 1.16 12.72-3.27 18.126-1.072-2.062-1.938-4.289-2.697-6.8a36.93 36.93 0 0 1-1.448-7.568 1.097 1.097 0 0 0-1.268-.998c-.565.073-.97.601-.921 1.18.174 2.082.582 4.83 1.496 7.896 1.79 6.004 4.554 12.016 11.939 18.134-1.263 4.292-1.121 7.368-.283 11.074 0 0 2.054 10.16-.91 18.604h5.818c-.131-3.117-.653-12.073-2.421-17.456"/>
  </g>
</svg>