<svg xmlns="http://www.w3.org/2000/svg" width="66" height="64" viewBox="0 0 66 64">
    <g fill="none" fill-rule="nonzero">
        <path fill="#53778D" d="M63.423 35.036c1.505-1.724 2.258-3.762 2.258-6.116 0-2.135-.78-3.982-2.337-5.543-1.56-1.56-3.407-2.34-5.542-2.34h-11.37c.109-.383.218-.712.328-.985.108-.274.26-.575.45-.903.192-.329.33-.575.41-.74.493-.93.87-1.696 1.13-2.298.26-.602.52-1.423.78-2.463s.39-2.08.39-3.12c0-.656-.008-1.19-.021-1.6-.013-.411-.083-1.027-.205-1.848-.124-.821-.288-1.505-.493-2.052-.206-.548-.534-1.164-.985-1.848a5.755 5.755 0 0 0-1.643-1.662C45.93 1.093 45.11.738 44.11.45c-1-.288-2.128-.431-3.387-.431-.712 0-1.327.26-1.848.78-.547.547-1.013 1.231-1.396 2.052-.383.82-.65 1.532-.8 2.135-.151.602-.322 1.437-.513 2.504a103.23 103.23 0 0 1-.555 2.483c-.123.507-.363 1.17-.719 1.99-.356.822-.78 1.479-1.272 1.972-.903.903-2.285 2.545-4.146 4.925a75.354 75.354 0 0 1-4.147 4.967c-1.423 1.56-2.463 2.368-3.12 2.423a2.692 2.692 0 0 0-1.764.841c-.493.507-.74 1.102-.74 1.786V55.19c0 .712.26 1.32.78 1.827.52.507 1.136.773 1.848.8.957.028 3.12.63 6.486 1.808 2.107.71 3.755 1.251 4.946 1.62 1.19.37 2.854.766 4.987 1.191 2.135.424 4.105.637 5.91.637h5.296c3.64-.055 6.335-1.123 8.087-3.202 1.587-1.889 2.257-4.365 2.012-7.43 1.067-1.013 1.807-2.299 2.217-3.859.464-1.668.464-3.27 0-4.802 1.258-1.67 1.847-3.544 1.764-5.624.003-.877-.201-1.916-.613-3.12z"/>
        <path fill="#789D4A" d="M14.45 26.292H2.628c-.712 0-1.328.26-1.848.78S0 28.209 0 28.92v26.273c0 .71.26 1.327.78 1.847s1.136.78 1.848.78H14.45c.711 0 1.327-.26 1.847-.78s.78-1.136.78-1.847V28.92c0-.712-.26-1.328-.78-1.847-.52-.52-1.135-.78-1.847-.78zM9.729 51.806c-.52.506-1.136.759-1.847.759-.74 0-1.362-.253-1.868-.76-.506-.506-.76-1.128-.76-1.867 0-.712.254-1.328.76-1.847a2.504 2.504 0 0 1 1.868-.78c.711 0 1.327.26 1.847.78s.78 1.135.78 1.847c0 .739-.26 1.361-.78 1.868z"/>
    </g>
</svg>
