<svg xmlns="http://www.w3.org/2000/svg" width="53" height="64" viewBox="0 0 53 64">
    <g fill="none" fill-rule="nonzero">
        <path fill="#998A1C" d="M20.03 51.421l-2.653 1.591a8.868 8.868 0 0 1-11.952-2.686 9.02 9.02 0 0 1-.981-1.973 9.292 9.292 0 0 0-2.442 6.29c0 5.145 4.185 9.33 9.33 9.33 5.144 0 9.329-4.185 9.329-9.33 0-1.11-.243-2.193-.632-3.222z"/>
        <path fill="#789D4A" d="M51.84 8.104L33.18.107A1.337 1.337 0 0 0 31.616.5l-5.33 6.664c-.251.314-.347.725-.262 1.12.085.394.344.724.706.905l20.133 10.066a3.967 3.967 0 0 0 1.786.426c1.026 0 2.04-.41 2.783-1.128a3.964 3.964 0 0 0 1.218-2.873V9.33a1.338 1.338 0 0 0-.81-1.225z"/>
        <path fill="#AC9F3C" d="M9.999 53.767v3.542a1.333 1.333 0 0 0 2.665 0v-3.044c-.925-.016-1.81-.21-2.665-.498z"/>
        <path fill="#53778D" d="M45.669 21.64L23.255 10.43 9.943 15.424a6.688 6.688 0 0 0-3.377 2.812l-5.534 9.223a6.628 6.628 0 0 0-.245 6.408l3.926 7.853c.717-1.645 1.874-2.98 3.377-3.841a124.354 124.354 0 0 0 4.652-2.783c-.059-.035-.102-.096-.163-.126-.24-1.455-.949-2.74-1.62-3.68 2.039-.878 4.765-2.458 6.149-4.07a15.603 15.603 0 0 0 4.83 1.836c-1.557 1.927-3.143 4.312-3.719 5.901-.487.221-1.215.6-2.337 1.25-1.408.986-3.444 2.247-6.467 3.985-1.365.784-2.319 2.178-2.69 3.924-.08.376-.111.752-.122 1.127-.003.12.008.238.01.358a5.872 5.872 0 0 0 .145 1.16c.058.255.136.508.226.756.04.11.075.219.12.328.15.347.323.688.538 1.008.254.38.56.706.875 1.013a8.342 8.342 0 0 0 .925.714 6.498 6.498 0 0 0 4.046.952c.173-.019.35-.035.522-.07a5.99 5.99 0 0 0 .68-.165c.448-.144.893-.31 1.314-.562l9.159-5.494c1.434-.35 8.559-2.482 13.957-11.214 3.153-5.1 5.275-9.454 6.56-12.376-.003-.008-.006-.01-.011-.01z"/>
    </g>
</svg>
