<svg xmlns="http://www.w3.org/2000/svg" width="47" height="64" viewBox="0 0 47 64">
    <g fill="none" fill-rule="nonzero">
        <path fill="#789D4A" d="M41.105 13.482h-2.26a5.296 5.296 0 0 0-5.295 5.294v.389l6.684-4.748c.006-.004.014-.005.02-.009-.006.005-.013.006-.018.011l-8.827 8.116-9.051 3.855a2.63 2.63 0 1 0 2.059 4.838l9.468-4.03c.277-.118.53-.281.75-.485l9.16-8.423c.007-.007.01-.017.017-.024-.007.008-.01.018-.016.026l-8.093 9.583c-.234.278-.52.484-.832.619l-.368.156-.953.405.003 30.845a3.157 3.157 0 0 0 3.157 3.156c.719 0 1.376-.25 1.906-.658a5.216 5.216 0 0 1-.657-2.498V41.093h2.104V59.9a3.156 3.156 0 0 0 6.311 0s.025-26.534.025-41.124a5.295 5.295 0 0 0-5.294-5.294zM39.976 12.298a6.147 6.147 0 0 0 6.15-6.148A6.147 6.147 0 0 0 39.976 0a6.149 6.149 0 1 0 0 12.298z"/>
        <path fill="#53778D" d="M6.535 12.298A6.149 6.149 0 1 0 6.535 0 6.147 6.147 0 0 0 .386 6.15a6.147 6.147 0 0 0 6.15 6.148zM14.265 22.121l-7.019-6.77 5.717 4.411v-.986a5.296 5.296 0 0 0-5.295-5.294h-2.26a5.295 5.295 0 0 0-5.295 5.294C.113 33.833.138 59.9.138 59.9a3.156 3.156 0 1 0 6.31 0V41.093h2.105V59.9c0 .91-.253 1.752-.658 2.498.53.407 1.188.658 1.908.658a3.157 3.157 0 0 0 3.156-3.156l.004-30.881-2.1-1.494-.672-.477a.628.628 0 0 1-.107-.1l-6.491-7.81 7.265 7.007c.165.157.348.294.547.404l8.67 4.83a4.15 4.15 0 0 1-.558-.921c-.73-1.715-.222-3.628 1.105-4.795l-6.357-3.542z"/>
    </g>
</svg>
