<svg xmlns="http://www.w3.org/2000/svg" xmlns:xlink="http://www.w3.org/1999/xlink" width="64" height="65" viewBox="0 0 64 65">
    <defs>
        <path id="a" d="M.208.26h12.558v12.558H.208z"/>
        <path id="c" d="M.104.26h12.559v12.558H.103V.26z"/>
        <path id="e" d="M20.601.052v35.185H.363V.052H20.6z"/>
        <path id="g" d="M23.249 40.477H.052V.157h23.197z"/>
    </defs>
    <g fill="none" fill-rule="evenodd">
        <g transform="translate(3.633 .259)">
            <mask id="b" fill="#fff">
                <use xlink:href="#a"/>
            </mask>
            <path fill="#789D4A" d="M6.487.26a6.279 6.279 0 1 1 0 12.558 6.279 6.279 0 0 1 0-12.558" mask="url(#b)"/>
        </g>
        <path fill="#789D4A" d="M3.114 35.08h.622v12.455a3.122 3.122 0 0 0 3.114 3.113h6.539c1.712 0 3.113-1.4 3.113-3.113v-.726c-.57-1.09-.934-2.336-.934-3.633V26.881c0-3.165 1.92-5.916 4.67-7.11v-1.245a3.123 3.123 0 0 0-3.113-3.113H3.114A3.123 3.123 0 0 0 0 18.526v13.44a3.09 3.09 0 0 0 3.114 3.114"/>
        <g transform="translate(47.224 .259)">
            <mask id="d" fill="#fff">
                <use xlink:href="#c"/>
            </mask>
            <path fill="#53778D" d="M6.383.26a6.28 6.28 0 1 1 0 12.559 6.28 6.28 0 0 1 0-12.56" mask="url(#d)"/>
        </g>
        <g transform="translate(43.072 15.308)">
            <mask id="f" fill="#fff">
                <use xlink:href="#e"/>
            </mask>
            <path fill="#53778D" d="M.363 3.166v1.246c2.75 1.193 4.67 3.943 4.67 7.109v16.243c0 1.297-.312 2.543-.933 3.633v.726c0 1.713 1.4 3.114 3.113 3.114h6.54a3.123 3.123 0 0 0 3.113-3.114V19.668h.622a3.122 3.122 0 0 0 3.114-3.113V3.166c0-1.712-1.401-3.114-3.114-3.114H3.476A3.123 3.123 0 0 0 .363 3.166" mask="url(#f)"/>
        </g>
        <g transform="translate(20.239 23.611)">
            <mask id="h" fill="#fff">
                <use xlink:href="#g"/>
            </mask>
            <path fill="#998A1C" d="M.052 3.27v16.294a3.122 3.122 0 0 0 3.114 3.113h1.193v14.687a3.123 3.123 0 0 0 3.114 3.114h8.355a3.123 3.123 0 0 0 3.113-3.114V22.626h1.194c1.713 0 3.114-1.4 3.114-3.114V3.27A3.123 3.123 0 0 0 20.135.156H3.165A3.09 3.09 0 0 0 .053 3.27" mask="url(#h)"/>
        </g>
        <path fill="#998A1C" d="M31.863 6.746a7.213 7.213 0 1 1 0 14.426 7.213 7.213 0 0 1 0-14.426"/>
    </g>
</svg>
